solid bobot
facet normal -0.4983147465564571 -0.8669962014705527 8.298405387802386e-08
  outer loop
    vertex 335.0301235988432 202.10132607763313 -2.688634060377445
    vertex 319.9287639292901 210.7809837798458 -2.188637360131259
    vertex 319.92876399073793 210.7809836966708 -2.6886373601312483
  endloop
endfacet
facet normal -0.4983147465564571 -0.8669962014705527 8.298405387802386e-08
  outer loop
    vertex 319.9287639292901 210.7809837798458 -2.188637360131259
    vertex 335.0301235988432 202.10132607763313 -2.688634060377445
    vertex 335.03012353739535 202.10132616080813 -2.1886340603774554
  endloop
endfacet
facet normal 0.670574661778106 -0.741842047191406 2.058161919828818e-07
  outer loop
    vertex 365.2705765368068 215.635776859426 -2.188632595410361
    vertex 352.3491549033855 203.9556920256849 -2.6886322404160077
    vertex 365.27057659825465 215.635776776251 -2.6886325954103505
  endloop
endfacet
facet normal 0.670574661778106 -0.741842047191406 2.058161919828818e-07
  outer loop
    vertex 352.3491549033855 203.9556920256849 -2.6886322404160077
    vertex 365.2705765368068 215.635776859426 -2.188632595410361
    vertex 352.3491548419376 203.95569210885986 -2.1886322404160183
  endloop
endfacet
facet normal -0.9127526795298001 -0.4085126020224689 -4.42173482024703e-08
  outer loop
    vertex 319.9287639292901 210.7809837798458 -2.188637360131259
    vertex 312.81328217303206 226.67933068303765 -2.6886408792836183
    vertex 319.92876399073793 210.7809836966708 -2.6886373601312483
  endloop
endfacet
facet normal -0.9127526795298001 -0.4085126020224689 -4.42173482024703e-08
  outer loop
    vertex 312.81328217303206 226.67933068303765 -2.6886408792836183
    vertex 319.9287639292901 210.7809837798458 -2.188637360131259
    vertex 312.81328211158416 226.67933076621264 -2.1886408792836294
  endloop
endfacet
facet normal -0.670574661778114 0.7418420471913989 -2.0581619198288163e-07
  outer loop
    vertex 316.40155035375733 243.7237388528813 -2.688643273637957
    vertex 329.32297198717833 255.40382368662242 -2.1886436286323137
    vertex 329.32297204862624 255.40382360344745 -2.688643628632303
  endloop
endfacet
facet normal -0.670574661778114 0.7418420471913989 -2.0581619198288163e-07
  outer loop
    vertex 329.32297198717833 255.40382368662242 -2.1886436286323137
    vertex 316.40155035375733 243.7237388528813 -2.688643273637957
    vertex 316.4015502923094 243.72373893605626 -2.1886432736379677
  endloop
endfacet
facet normal -0.9785501122452984 0.2060089265655493 -1.5452922616201148e-07
  outer loop
    vertex 312.81328211158416 226.67933076621264 -2.1886408792836294
    vertex 316.40155035375733 243.7237388528813 -2.688643273637957
    vertex 312.81328217303206 226.67933068303765 -2.6886408792836183
  endloop
endfacet
facet normal -0.9785501122452984 0.2060089265655493 -1.5452922616201148e-07
  outer loop
    vertex 316.40155035375733 243.7237388528813 -2.688643273637957
    vertex 312.81328211158416 226.67933076621264 -2.1886408792836294
    vertex 316.4015502923094 243.72373893605626 -2.1886432736379677
  endloop
endfacet
facet normal -0.1064624825061563 0.9943167200739385 -1.7848836790136496e-07
  outer loop
    vertex 329.32297198717833 255.40382368662242 -2.1886436286323137
    vertex 346.6420033531693 257.2581895514994 -2.688641808670871
    vertex 329.32297204862624 255.40382360344745 -2.688643628632303
  endloop
endfacet
facet normal -0.1064624825061563 0.9943167200739385 -1.7848836790136496e-07
  outer loop
    vertex 346.6420033531693 257.2581895514994 -2.688641808670871
    vertex 329.32297198717833 255.40382368662242 -2.1886436286323137
    vertex 346.6420032917214 257.25818963467435 -2.188641808670882
  endloop
endfacet
facet normal 0.4983147465564693 0.8669962014705456 -8.298405387802119e-08
  outer loop
    vertex 346.6420032917214 257.25818963467435 -2.188641808670882
    vertex 361.7433629612744 248.57853193246152 -2.688638508917068
    vertex 346.6420033531693 257.2581895514994 -2.688641808670871
  endloop
endfacet
facet normal 0.4983147465564693 0.8669962014705456 -8.298405387802119e-08
  outer loop
    vertex 361.7433629612744 248.57853193246152 -2.688638508917068
    vertex 346.6420032917214 257.25818963467435 -2.188641808670882
    vertex 361.7433628998265 248.5785320156365 -2.188638508917079
  endloop
endfacet
facet normal 0.9127526795298071 0.4085126020224533 4.421734820247377e-08
  outer loop
    vertex 361.7433629612744 248.57853193246152 -2.688638508917068
    vertex 368.8588447175322 232.68018502926944 -2.1886349897647057
    vertex 368.85884477898003 232.68018494609444 -2.6886349897646946
  endloop
endfacet
facet normal 0.9127526795298071 0.4085126020224533 4.421734820247377e-08
  outer loop
    vertex 368.8588447175322 232.68018502926944 -2.1886349897647057
    vertex 361.7433629612744 248.57853193246152 -2.688638508917068
    vertex 361.7433628998265 248.5785320156365 -2.188638508917079
  endloop
endfacet
facet normal 0.9785501122452964 -0.20600892656555883 1.545292261620128e-07
  outer loop
    vertex 368.85884477898003 232.68018494609444 -2.6886349897646946
    vertex 365.2705765368068 215.635776859426 -2.188632595410361
    vertex 365.27057659825465 215.635776776251 -2.6886325954103505
  endloop
endfacet
facet normal 0.9785501122452964 -0.20600892656555883 1.545292261620128e-07
  outer loop
    vertex 365.2705765368068 215.635776859426 -2.188632595410361
    vertex 368.85884477898003 232.68018494609444 -2.6886349897646946
    vertex 368.8588447175322 232.68018502926944 -2.1886349897647057
  endloop
endfacet
facet normal 1.2289574198228302e-07 -1.6634999571182064e-07 -0.9999999999999787
  outer loop
    vertex 316.40155035375733 243.7237388528813 -2.688643273637957
    vertex 319.92876399073793 210.7809836966708 -2.6886373601312483
    vertex 312.81328217303206 226.67933068303765 -2.6886408792836183
  endloop
endfacet
facet normal 1.2289574198228302e-07 -1.6634999571182064e-07 -0.9999999999999787
  outer loop
    vertex 319.92876399073793 210.7809836966708 -2.6886373601312483
    vertex 316.40155035375733 243.7237388528813 -2.688643273637957
    vertex 329.32297204862624 255.40382360344745 -2.688643628632303
  endloop
endfacet
facet normal 1.2289574198228302e-07 -1.6634999571182064e-07 -0.9999999999999787
  outer loop
    vertex 319.92876399073793 210.7809836966708 -2.6886373601312483
    vertex 329.32297204862624 255.40382360344745 -2.688643628632303
    vertex 335.0301235988432 202.10132607763313 -2.688634060377445
  endloop
endfacet
facet normal 1.2289574198228302e-07 -1.6634999571182064e-07 -0.9999999999999787
  outer loop
    vertex 335.0301235988432 202.10132607763313 -2.688634060377445
    vertex 329.32297204862624 255.40382360344745 -2.688643628632303
    vertex 346.6420033531693 257.2581895514994 -2.688641808670871
  endloop
endfacet
facet normal 1.2289574198228302e-07 -1.6634999571182064e-07 -0.9999999999999787
  outer loop
    vertex 335.0301235988432 202.10132607763313 -2.688634060377445
    vertex 346.6420033531693 257.2581895514994 -2.688641808670871
    vertex 352.3491549033855 203.9556920256849 -2.6886322404160077
  endloop
endfacet
facet normal 1.2289574198228302e-07 -1.6634999571182064e-07 -0.9999999999999787
  outer loop
    vertex 352.3491549033855 203.9556920256849 -2.6886322404160077
    vertex 346.6420033531693 257.2581895514994 -2.688641808670871
    vertex 361.7433629612744 248.57853193246152 -2.688638508917068
  endloop
endfacet
facet normal 1.2289574198228302e-07 -1.6634999571182064e-07 -0.9999999999999787
  outer loop
    vertex 352.3491549033855 203.9556920256849 -2.6886322404160077
    vertex 361.7433629612744 248.57853193246152 -2.688638508917068
    vertex 365.27057659825465 215.635776776251 -2.6886325954103505
  endloop
endfacet
facet normal 1.2289574198228302e-07 -1.6634999571182064e-07 -0.9999999999999787
  outer loop
    vertex 365.27057659825465 215.635776776251 -2.6886325954103505
    vertex 361.7433629612744 248.57853193246152 -2.688638508917068
    vertex 368.85884477898003 232.68018494609444 -2.6886349897646946
  endloop
endfacet
facet normal -1.2289574198228302e-07 1.6634999571182064e-07 0.9999999999999787
  outer loop
    vertex 319.9287639292901 210.7809837798458 -2.188637360131259
    vertex 316.4015502923094 243.72373893605626 -2.1886432736379677
    vertex 312.81328211158416 226.67933076621264 -2.1886408792836294
  endloop
endfacet
facet normal -1.2289574198228302e-07 1.6634999571182064e-07 0.9999999999999787
  outer loop
    vertex 316.4015502923094 243.72373893605626 -2.1886432736379677
    vertex 319.9287639292901 210.7809837798458 -2.188637360131259
    vertex 329.32297198717833 255.40382368662242 -2.1886436286323137
  endloop
endfacet
facet normal -1.2289574198228302e-07 1.6634999571182064e-07 0.9999999999999787
  outer loop
    vertex 329.32297198717833 255.40382368662242 -2.1886436286323137
    vertex 319.9287639292901 210.7809837798458 -2.188637360131259
    vertex 335.03012353739535 202.10132616080813 -2.1886340603774554
  endloop
endfacet
facet normal -1.2289574198228302e-07 1.6634999571182064e-07 0.9999999999999787
  outer loop
    vertex 329.32297198717833 255.40382368662242 -2.1886436286323137
    vertex 335.03012353739535 202.10132616080813 -2.1886340603774554
    vertex 346.6420032917214 257.25818963467435 -2.188641808670882
  endloop
endfacet
facet normal -1.2289574198228302e-07 1.6634999571182064e-07 0.9999999999999787
  outer loop
    vertex 346.6420032917214 257.25818963467435 -2.188641808670882
    vertex 335.03012353739535 202.10132616080813 -2.1886340603774554
    vertex 352.3491548419376 203.95569210885986 -2.1886322404160183
  endloop
endfacet
facet normal -1.2289574198228302e-07 1.6634999571182064e-07 0.9999999999999787
  outer loop
    vertex 346.6420032917214 257.25818963467435 -2.188641808670882
    vertex 352.3491548419376 203.95569210885986 -2.1886322404160183
    vertex 361.7433628998265 248.5785320156365 -2.188638508917079
  endloop
endfacet
facet normal -1.2289574198228302e-07 1.6634999571182064e-07 0.9999999999999787
  outer loop
    vertex 361.7433628998265 248.5785320156365 -2.188638508917079
    vertex 352.3491548419376 203.95569210885986 -2.1886322404160183
    vertex 365.2705765368068 215.635776859426 -2.188632595410361
  endloop
endfacet
facet normal -1.2289574198228302e-07 1.6634999571182064e-07 0.9999999999999787
  outer loop
    vertex 361.7433628998265 248.5785320156365 -2.188638508917079
    vertex 365.2705765368068 215.635776859426 -2.188632595410361
    vertex 368.8588447175322 232.68018502926944 -2.1886349897647057
  endloop
endfacet
facet normal 0.10646248250615069 -0.9943167200739389 1.7848836790136435e-07
  outer loop
    vertex 352.3491549033855 203.9556920256849 -2.6886322404160077
    vertex 335.03012353739535 202.10132616080813 -2.1886340603774554
    vertex 335.0301235988432 202.10132607763313 -2.688634060377445
  endloop
endfacet
facet normal 0.10646248250615069 -0.9943167200739389 1.7848836790136435e-07
  outer loop
    vertex 335.03012353739535 202.10132616080813 -2.1886340603774554
    vertex 352.3491549033855 203.9556920256849 -2.6886322404160077
    vertex 352.3491548419376 203.95569210885986 -2.1886322404160183
  endloop
endfacet
endsolid bobot
